<svg width="430" height="158" viewBox="0 0 430 158" fill="none" xmlns="http://www.w3.org/2000/svg">
<rect width="430" height="158" rx="35" fill="url(#paint0_linear_2004_4)"/>
<path d="M67.6638 116C66.0345 116 64.6558 115.499 63.5278 114.496C62.4625 113.493 61.9298 112.24 61.9298 110.736V55.37C61.9298 53.9287 62.4625 52.7067 63.5278 51.704C64.6558 50.7013 66.0345 50.2 67.6638 50.2H88.9078C94.3598 50.2 99.1851 51.234 103.384 53.302C107.645 55.37 110.935 58.284 113.254 62.044C115.572 65.804 116.732 70.128 116.732 75.016V90.902C116.732 95.79 115.541 100.145 113.16 103.968C110.841 107.728 107.551 110.673 103.29 112.804C99.0911 114.935 94.2971 116 88.9078 116H67.6638ZM87.9678 106.224C93.5451 106.224 97.8378 104.908 100.846 102.276C103.916 99.644 105.452 95.9153 105.452 91.09V74.922C105.452 70.0967 103.948 66.3993 100.94 63.83C97.9318 61.2607 93.6078 59.976 87.9678 59.976H73.2098V106.224H87.9678ZM129.533 116.846C127.089 116.533 125.177 115.655 123.799 114.214C122.42 112.71 121.731 110.893 121.731 108.762C121.731 107.07 122.138 105.378 122.953 103.686L144.761 53.02C145.826 50.576 147.675 49.354 150.307 49.354C152.876 49.354 154.725 50.576 155.853 53.02L177.661 103.686C178.413 105.441 178.789 107.101 178.789 108.668C178.789 110.861 178.099 112.71 176.721 114.214C175.342 115.655 173.431 116.533 170.987 116.846L162.997 98.422H137.523L129.533 116.846ZM159.519 88.646L148.615 61.292L147.581 61.668L149.743 67.026L141.001 88.646H159.519ZM191.618 116C190.051 116 188.798 115.561 187.858 114.684C186.918 113.807 186.448 112.616 186.448 111.112C186.448 109.733 186.824 108.637 187.576 107.822L230.157 56.78L229.406 56.122L226.116 59.882H196.976C194.281 59.882 192.213 59.0673 190.772 57.438C189.33 55.746 188.61 53.3333 188.61 50.2H238.43C240.059 50.2 241.312 50.6387 242.19 51.516C243.13 52.3307 243.6 53.5213 243.6 55.088C243.6 56.3413 243.224 57.4067 242.472 58.284L200.172 109.42L200.924 109.984L204.12 106.318H235.61C238.304 106.318 240.341 107.164 241.72 108.856C243.161 110.485 243.882 112.867 243.882 116H191.618ZM256.61 116C255.043 116 253.79 115.561 252.85 114.684C251.91 113.807 251.44 112.616 251.44 111.112C251.44 109.733 251.816 108.637 252.568 107.822L295.15 56.78L294.398 56.122L291.108 59.882H261.968C259.273 59.882 257.205 59.0673 255.764 57.438C254.322 55.746 253.602 53.3333 253.602 50.2H303.422C305.051 50.2 306.304 50.6387 307.182 51.516C308.122 52.3307 308.592 53.5213 308.592 55.088C308.592 56.3413 308.216 57.4067 307.464 58.284L265.164 109.42L265.916 109.984L269.112 106.318H300.602C303.296 106.318 305.333 107.164 306.712 108.856C308.153 110.485 308.874 112.867 308.874 116H256.61ZM335.521 92.312L312.209 50.576C312.773 50.2627 313.619 49.9807 314.747 49.73C315.875 49.4793 316.909 49.354 317.849 49.354C319.917 49.354 321.641 49.7927 323.019 50.67C324.461 51.4847 325.683 52.8007 326.685 54.618L340.973 81.314L338.529 86.202L339.469 86.672L355.731 54.618C357.486 51.1087 360.431 49.354 364.567 49.354C365.507 49.354 366.541 49.4793 367.669 49.73C368.797 49.9807 369.643 50.2627 370.207 50.576L346.895 92.312V108.198C346.895 110.955 345.924 113.086 343.981 114.59C342.039 116.094 339.219 116.846 335.521 116.846V92.312Z" fill="#323131"/>
<defs>
<linearGradient id="paint0_linear_2004_4" x1="0" y1="0" x2="282.771" y2="328.741" gradientUnits="userSpaceOnUse">
<stop stop-color="#F49C6D"/>
<stop offset="1" stop-color="#EC51D7"/>
</linearGradient>
</defs>
</svg>
